<svg width="40" height="24" fill="none" xmlns="http://www.w3.org/2000/svg"><path d="M36.667 0H3.333C1.493 0 0 1.465 0 3.273v17.454C0 22.535 1.492 24 3.333 24h33.334C38.507 24 40 22.535 40 20.727V3.273C40 1.465 38.508 0 36.667 0z" fill="#00122C"/><path d="M15.556 18.546c3.682 0 6.666-2.931 6.666-6.546s-2.985-6.545-6.666-6.545c-3.682 0-6.667 2.93-6.667 6.545 0 3.615 2.985 6.546 6.667 6.546z" fill="#E82C30"/><path d="M24.445 18.546c3.681 0 6.666-2.931 6.666-6.546s-2.985-6.545-6.666-6.545c-3.682 0-6.667 2.93-6.667 6.545 0 3.615 2.985 6.546 6.667 6.546z" fill="#ECA21D"/><path d="M20 6.545a6.248 6.248 0 00-2.32 2.086 6.077 6.077 0 00-.432 5.967 6.2 6.2 0 001.996 2.387l.756.47h.078a6.24 6.24 0 002.425-2.29 6.09 6.09 0 00.878-3.188 6.091 6.091 0 00-.923-3.177A6.245 6.245 0 0020 6.545z" fill="#F36D1E"/></svg>
