<svg width="40" height="24" fill="none" xmlns="http://www.w3.org/2000/svg"><path d="M36.667 0H3.333C1.493 0 0 1.465 0 3.273v17.454C0 22.535 1.492 24 3.333 24h33.334C38.507 24 40 22.535 40 20.727V3.273C40 1.465 38.508 0 36.667 0z" fill="#224DBA"/><path d="M12.222 16.363h-2.31L8.177 9.534a1.08 1.08 0 00-.511-.72 7.098 7.098 0 00-2.111-.72v-.261h3.722c.245.007.478.102.656.267a.975.975 0 01.31.627l.89 4.887 2.31-5.781h2.223l-3.445 8.53zm4.745 0h-2.222l1.788-8.476h2.223l-1.79 8.476zm4.622-6.13a.826.826 0 01.307-.53.855.855 0 01.593-.18 3.929 3.929 0 012.111.382l.378-1.821a5.382 5.382 0 00-1.989-.448c-2.111 0-3.656 1.178-3.656 2.804.06.515.268 1.004.598 1.409.33.405.77.71 1.27.882.832.382 1.11.654 1.11 1.036a1.09 1.09 0 01-.463.68c-.239.158-.53.22-.815.171a5.324 5.324 0 01-2.222-.524l-.378 1.833c.75.306 1.555.459 2.367.447 2.378.066 3.856-1.09 3.856-2.869 0-2.182-3.023-2.345-3.023-3.327l-.044.055zm10.633 6.13L30.5 7.833h-1.855a.99.99 0 00-.555.188.961.961 0 00-.345.466l-3.2 7.876h2.222l.444-1.243h2.79l.244 1.243h1.977zm-3.255-6.25l.633 3.196h-1.822l1.189-3.196z" fill="#fff"/></svg>
